<?xml version="1.0" standalone="no"?>
<!DOCTYPE svg PUBLIC "-//W3C//DTD SVG 20010904//EN"
 "http://www.w3.org/TR/2001/REC-SVG-20010904/DTD/svg10.dtd">
<svg version="1.0" xmlns="http://www.w3.org/2000/svg"
 width="856.000000pt" height="856.000000pt" viewBox="0 0 856.000000 856.000000"
 preserveAspectRatio="xMidYMid meet">
<metadata>
Created by potrace 1.14, written by Peter Selinger 2001-2017
</metadata>
<g transform="translate(0.000000,856.000000) scale(0.100000,-0.100000)"
fill="#000000" stroke="none">
<path d="M3013 8538 c-81 -39 -141 -122 -199 -275 -14 -37 -27 -72 -29 -78 -1
-5 -7 -21 -12 -35 -6 -14 -17 -45 -26 -70 -14 -43 -40 -111 -57 -155 -4 -11
-20 -54 -35 -95 -14 -41 -30 -84 -35 -95 -8 -20 -37 -100 -85 -235 -15 -41
-31 -84 -35 -95 -5 -11 -29 -76 -54 -145 -25 -69 -55 -150 -66 -180 -12 -30
-26 -71 -32 -90 -5 -19 -14 -40 -19 -46 -5 -6 -10 -19 -12 -30 -4 -18 -7 -27
-24 -71 -3 -10 -7 -20 -8 -23 -5 -14 -18 -47 -25 -65 -5 -11 -22 -58 -39 -105
-31 -88 -37 -105 -128 -350 -30 -80 -55 -149 -57 -155 -2 -5 -6 -19 -10 -30
-5 -11 -10 -27 -13 -35 -4 -8 -8 -24 -10 -34 -2 -11 -7 -24 -12 -30 -4 -6 -20
-45 -34 -86 -14 -41 -35 -100 -47 -130 -12 -30 -21 -56 -21 -57 0 -2 -7 -20
-16 -40 -8 -21 -16 -42 -17 -48 -1 -10 -19 -57 -36 -100 -5 -11 -20 -54 -35
-95 -57 -158 -78 -216 -86 -235 -5 -11 -23 -60 -40 -110 -17 -49 -33 -94 -37
-100 -4 -5 -7 -13 -8 -17 -1 -5 -2 -9 -4 -10 -1 -2 -3 -10 -5 -18 -2 -8 -31
-89 -65 -180 -34 -91 -82 -221 -107 -290 -25 -69 -50 -136 -56 -150 -6 -14
-11 -27 -11 -30 -2 -6 -45 -129 -56 -155 -24 -61 -72 -193 -75 -209 -2 -10 -9
-24 -16 -32 -6 -8 -8 -14 -4 -14 4 0 2 -7 -5 -15 -7 -8 -10 -15 -6 -15 4 0 0
-13 -9 -30 -9 -16 -13 -30 -9 -30 4 0 2 -6 -4 -12 -5 -7 -17 -33 -25 -58 -9
-25 -64 -175 -122 -335 -59 -159 -118 -320 -130 -357 l-24 -68 47 24 c64 32
283 123 316 132 14 3 29 10 32 15 3 5 13 9 23 9 10 0 32 7 47 15 16 8 36 15
45 15 9 0 19 3 23 7 3 4 12 8 19 9 7 1 37 11 67 23 72 27 265 87 360 113 119
32 183 48 210 54 14 3 52 12 85 21 33 8 71 17 85 19 14 3 36 7 50 9 14 3 37 8
53 10 15 3 39 8 55 11 36 7 52 10 152 24 47 6 92 14 100 17 8 2 46 7 84 9 38
2 81 6 95 9 14 3 94 8 176 11 83 3 155 7 161 8 8 3 30 56 39 96 2 7 161 498
203 625 20 61 37 112 37 115 1 4 109 342 148 460 6 19 12 37 12 40 1 3 4 12 8
20 3 8 38 116 77 240 40 124 82 257 95 295 64 189 188 580 185 580 -2 0 2 9 8
21 6 11 13 32 16 45 9 41 62 192 79 224 20 40 71 91 109 109 108 55 232 5 291
-116 22 -45 36 -78 42 -98 0 -3 9 -32 19 -65 10 -33 19 -66 19 -72 0 -7 4 -13
9 -13 4 0 7 -3 6 -7 0 -5 1 -15 4 -23 4 -8 38 -116 78 -240 39 -124 80 -249
91 -278 10 -28 18 -54 18 -57 0 -5 46 -153 58 -185 3 -8 7 -19 8 -25 3 -11 95
-295 130 -400 13 -38 44 -137 70 -220 26 -82 51 -159 55 -170 5 -11 39 -114
75 -230 37 -115 84 -262 105 -325 21 -63 55 -168 76 -232 l37 -118 86 -1 c135
-1 322 -12 421 -25 19 -2 58 -6 85 -9 44 -4 84 -9 215 -30 19 -3 49 -8 65 -10
31 -5 63 -11 105 -20 14 -3 34 -7 45 -9 83 -18 169 -37 220 -51 33 -9 69 -18
80 -21 11 -3 25 -6 30 -8 6 -2 24 -6 40 -10 55 -14 390 -127 430 -145 22 -10
58 -24 80 -32 22 -7 44 -17 50 -21 5 -4 17 -8 27 -8 10 0 18 -4 18 -10 0 -5 5
-10 10 -10 13 0 233 -102 240 -111 3 -3 16 -10 30 -14 20 -6 23 -5 14 6 -5 8
-27 61 -48 119 -45 123 -73 201 -92 250 -7 19 -32 87 -55 150 -22 63 -45 124
-49 135 -5 11 -17 45 -28 75 -11 30 -51 138 -89 240 -37 102 -68 187 -69 190
0 3 -6 18 -12 33 -7 16 -12 34 -12 41 0 7 -3 16 -7 19 -3 4 -14 28 -23 54 -10
27 -55 149 -100 273 -45 124 -98 268 -116 320 -19 52 -37 102 -41 110 -3 8 -7
17 -7 20 -1 3 -14 37 -28 75 -15 39 -52 140 -83 225 -65 180 -94 257 -105 285
-27 67 -39 105 -32 105 4 0 2 4 -4 8 -9 6 -40 85 -50 127 -3 11 -81 218 -94
250 -5 11 -16 43 -25 70 -10 28 -24 64 -31 82 -8 17 -14 36 -14 42 0 6 -4 19
-9 29 -6 9 -22 51 -37 92 -15 41 -38 104 -52 140 -13 35 -25 69 -27 75 -1 5
-5 17 -8 25 -12 29 -59 155 -61 165 -2 6 -6 17 -9 25 -4 8 -16 42 -27 75 -19
53 -33 91 -60 160 -29 73 -38 104 -33 109 4 3 1 6 -5 6 -7 0 -12 5 -12 12 0
10 -44 137 -70 203 -16 40 -35 90 -36 95 -1 6 -12 35 -24 65 -4 11 -13 36 -20
55 -7 19 -16 44 -20 55 -4 11 -13 36 -20 55 -7 19 -16 44 -20 55 -5 11 -19 49
-31 85 -12 36 -26 69 -31 75 -4 5 -8 17 -8 27 0 10 -4 26 -9 36 -5 9 -16 35
-24 57 -8 22 -27 74 -43 115 -15 41 -29 80 -30 86 -5 30 -60 134 -92 173 -34
42 -99 89 -114 83 -5 -1 -8 2 -8 8 0 6 -429 10 -1227 9 -1218 0 -1228 0 -1270
-21z"/>
<path d="M2726 2823 c-9 -43 -19 -91 -21 -108 -3 -16 -7 -40 -10 -51 -25 -112
-22 -434 6 -584 6 -30 12 -64 14 -75 1 -11 8 -42 15 -70 6 -27 13 -57 15 -65
1 -8 12 -42 23 -75 63 -189 156 -354 264 -470 l56 -60 7 30 c59 272 265 418
535 381 25 -3 61 -11 80 -18 41 -15 110 -57 110 -66 0 -4 12 -20 28 -37 70
-77 100 -211 107 -477 5 -188 11 -251 35 -350 64 -260 221 -491 430 -629 41
-27 80 -53 86 -58 6 -5 21 -12 35 -16 13 -4 30 -13 38 -19 17 -13 16 -12 -22
135 -31 117 -38 163 -39 248 -1 205 65 369 209 516 76 78 141 135 153 135 5 0
10 3 12 8 2 4 28 23 58 42 30 19 62 40 70 47 8 6 66 45 128 87 155 104 246
173 322 248 113 110 210 237 255 335 11 24 23 43 28 43 4 0 7 6 7 14 0 8 10
36 21 63 71 161 108 417 86 593 -9 70 -26 149 -36 168 -9 17 -11 24 -11 43 0
9 -55 -16 -70 -31 -10 -11 -126 -76 -175 -99 -157 -73 -442 -170 -550 -186
-11 -2 -45 -8 -75 -14 -68 -14 -92 -18 -155 -25 -27 -3 -75 -9 -105 -13 -72
-9 -483 -9 -583 0 -99 9 -254 27 -287 33 -14 3 -38 7 -55 10 -25 4 -150 28
-205 39 -282 58 -545 192 -729 371 -47 46 -86 84 -87 84 -1 0 -9 -35 -18 -77z"/>
</g>
</svg>
